<svg width="24" height="20" viewBox="0 0 24 20" fill="none" xmlns="http://www.w3.org/2000/svg">
<path d="M12.0005 16.9996C12.7145 16.9996 13.3705 17.2496 13.8865 17.6656L12.0005 19.9996L10.1145 17.6656C10.6479 17.2334 11.3139 16.9982 12.0005 16.9996ZM2.80845 0.392578L20.4855 18.0706L19.0715 19.4846L15.3895 15.8046L15.1425 16.1106C14.2538 15.3904 13.1443 14.9981 12.0005 14.9996C10.8571 14.998 9.74798 15.39 8.85945 16.1096L6.97445 13.7756C8.28851 12.711 9.90735 12.0925 11.5965 12.0096L9.82345 10.2376C8.31998 10.572 6.91452 11.2504 5.71745 12.2196L3.83045 9.88658C4.90826 9.01379 6.11893 8.31933 7.41645 7.82958L5.88545 6.29958C4.69877 6.83029 3.58612 7.51301 2.57545 8.33058L0.689453 5.99658C1.60445 5.25658 2.59245 4.60558 3.64145 4.05458L1.39345 1.80758L2.80845 0.392578ZM16.0845 10.8696L12.2165 7.00258L12.0005 6.99958C15.0955 6.99958 17.9375 8.08058 20.1705 9.88658L18.2845 12.2206C17.6126 11.6767 16.8731 11.2233 16.0845 10.8696ZM12.0005 1.99958C16.2855 1.99958 20.2205 3.49658 23.3105 5.99658L21.4265 8.32958C18.7602 6.16989 15.4317 4.994 12.0005 4.99958C11.4285 4.99958 10.8645 5.03158 10.3105 5.09358L7.72345 2.51058C9.09445 2.17658 10.5275 1.99958 12.0005 1.99958Z" fill="#FF3B30"/>
</svg>
