<svg width="28" height="28" viewBox="0 0 28 28" fill="none" xmlns="http://www.w3.org/2000/svg">
<path d="M13.9993 0.666992C21.3593 0.666992 27.3327 6.64033 27.3327 14.0003C27.3327 21.3603 21.3593 27.3337 13.9993 27.3337C6.63935 27.3337 0.666016 21.3603 0.666016 14.0003C0.666016 6.64033 6.63935 0.666992 13.9993 0.666992ZM6.03001 18.555C7.98735 21.475 10.926 23.3337 14.2127 23.3337C17.498 23.3337 20.438 21.4763 22.394 18.555C20.175 16.4811 17.2499 15.3294 14.2127 15.3337C11.175 15.3291 8.24937 16.4808 6.03001 18.555ZM13.9993 12.667C15.0602 12.667 16.0776 12.2456 16.8278 11.4954C17.5779 10.7453 17.9993 9.72786 17.9993 8.66699C17.9993 7.60613 17.5779 6.58871 16.8278 5.83856C16.0776 5.08842 15.0602 4.66699 13.9993 4.66699C12.9385 4.66699 11.9211 5.08842 11.1709 5.83856C10.4208 6.58871 9.99935 7.60613 9.99935 8.66699C9.99935 9.72786 10.4208 10.7453 11.1709 11.4954C11.9211 12.2456 12.9385 12.667 13.9993 12.667Z" fill="#2F3234"/>
</svg>
