<svg width="23" height="20" viewBox="0 0 23 20" fill="none" xmlns="http://www.w3.org/2000/svg">
<path d="M11.5005 16.9996C12.2145 16.9996 12.8705 17.2496 13.3865 17.6656L11.5005 19.9996L9.61445 17.6656C10.1479 17.2334 10.8139 16.9982 11.5005 16.9996ZM2.30845 0.392578L19.9855 18.0706L18.5715 19.4846L14.8895 15.8046L14.6425 16.1106C13.7538 15.3904 12.6443 14.9981 11.5005 14.9996C10.3571 14.998 9.24798 15.39 8.35945 16.1096L6.47445 13.7756C7.78851 12.711 9.40735 12.0925 11.0965 12.0096L9.32345 10.2376C7.81998 10.572 6.41452 11.2504 5.21745 12.2196L3.33045 9.88658C4.40826 9.01379 5.61893 8.31933 6.91645 7.82958L5.38545 6.29958C4.19877 6.83029 3.08612 7.51301 2.07545 8.33058L0.189453 5.99658C1.10445 5.25658 2.09245 4.60558 3.14145 4.05458L0.893453 1.80758L2.30845 0.392578ZM15.5845 10.8696L11.7165 7.00258L11.5005 6.99958C14.5955 6.99958 17.4375 8.08058 19.6705 9.88658L17.7845 12.2206C17.1126 11.6767 16.3731 11.2233 15.5845 10.8696ZM11.5005 1.99958C15.7855 1.99958 19.7205 3.49658 22.8105 5.99658L20.9265 8.32958C18.2602 6.16989 14.9317 4.994 11.5005 4.99958C10.9285 4.99958 10.3645 5.03158 9.81045 5.09358L7.22345 2.51058C8.59445 2.17658 10.0275 1.99958 11.5005 1.99958Z" fill="#FF3B30"/>
</svg>
