<svg width="22" height="20" viewBox="0 0 22 20" fill="none" xmlns="http://www.w3.org/2000/svg">
<path d="M19 18.6484C19 18.9136 18.8946 19.1679 18.7071 19.3555C18.5196 19.543 18.2652 19.6484 18 19.6484H4C3.73478 19.6484 3.48043 19.543 3.29289 19.3555C3.10536 19.1679 3 18.9136 3 18.6484V9.64836H0L10.327 0.260357C10.5111 0.0928353 10.7511 0 11 0C11.2489 0 11.4889 0.0928353 11.673 0.260357L22 9.64836H19V18.6484ZM11 13.6484C11.663 13.6484 12.2989 13.385 12.7678 12.9161C13.2366 12.4473 13.5 11.8114 13.5 11.1484C13.5 10.4853 13.2366 9.84943 12.7678 9.38059C12.2989 8.91175 11.663 8.64836 11 8.64836C10.337 8.64836 9.70107 8.91175 9.23223 9.38059C8.76339 9.84943 8.5 10.4853 8.5 11.1484C8.5 11.8114 8.76339 12.4473 9.23223 12.9161C9.70107 13.385 10.337 13.6484 11 13.6484Z" fill="#A2A5A7"/>
</svg>
