<svg width="14" height="15" viewBox="0 0 14 15" fill="none" xmlns="http://www.w3.org/2000/svg">
<path d="M13.75 10.1073V11.125C13.75 11.7355 13.4643 12.2575 13.0675 12.6677C12.6753 13.0742 12.1428 13.4058 11.5435 13.6683C10.342 14.1933 8.7355 14.5 7 14.5C5.2645 14.5 3.658 14.194 2.4565 13.6683C1.85725 13.4058 1.32475 13.0742 0.9325 12.6677C0.56875 12.2927 0.29875 11.8217 0.256 11.2758L0.25 11.125V10.1073C0.59875 10.3053 0.9715 10.4807 1.3705 10.6285C2.893 11.1917 4.88425 11.506 7 11.506C9.11575 11.506 11.107 11.1917 12.6295 10.6285C12.9288 10.5175 13.213 10.3915 13.4838 10.2512L13.75 10.1073ZM0.25 5.98225C0.59875 6.18025 0.9715 6.35575 1.3705 6.5035C2.893 7.06675 4.88425 7.381 7 7.381C9.11575 7.381 11.107 7.06675 12.6295 6.5035C13.0166 6.36062 13.3914 6.18629 13.75 5.98225V8.311C13.252 8.69541 12.6987 9.00238 12.109 9.2215C10.7928 9.709 8.986 10.0068 7 10.0068C5.01475 10.0068 3.208 9.709 1.891 9.2215C1.30127 9.00238 0.748023 8.69541 0.25 8.311V5.98225ZM7 0.25C8.7355 0.25 10.342 0.556 11.5435 1.08175C12.1428 1.34425 12.6753 1.67575 13.0675 2.08225C13.4313 2.45725 13.7013 2.92825 13.744 3.47425L13.75 3.625V4.186C13.252 4.57043 12.6987 4.8774 12.109 5.0965C10.7928 5.584 8.986 5.88175 7 5.88175C5.01475 5.88175 3.208 5.584 1.891 5.0965C1.38388 4.9084 0.903552 4.65474 0.46225 4.342L0.25 4.186V3.625C0.25 3.0145 0.53575 2.4925 0.9325 2.08225C1.32475 1.67575 1.85725 1.34425 2.4565 1.08175C3.658 0.55675 5.2645 0.25 7 0.25Z" fill="#FF9500"/>
</svg>
