<svg width="24" height="18" viewBox="0 0 24 18" fill="none" xmlns="http://www.w3.org/2000/svg">
<path d="M0.689453 3.99702C3.88854 1.40534 7.8823 -0.00607102 11.9995 1.96299e-05C16.2845 1.96299e-05 20.2195 1.49702 23.3095 3.99702L21.4245 6.33002C18.7584 4.17055 15.4303 2.99467 11.9995 3.00002C8.42945 3.00002 5.14945 4.24802 2.57445 6.33002L0.689453 3.99702ZM3.83045 7.88702C6.14106 6.01502 9.02569 4.99556 11.9995 5.00002C15.0935 5.00002 17.9355 6.08102 20.1685 7.88602L18.2835 10.22C16.5059 8.78023 14.2869 7.9963 11.9995 8.00002C9.61945 8.00002 7.43345 8.83202 5.71545 10.22L3.83045 7.88602V7.88702ZM6.97245 11.777C8.3943 10.6249 10.1694 9.99742 11.9995 10C13.9035 10 15.6525 10.665 17.0265 11.776L15.1415 14.11C14.2527 13.3902 13.1432 12.9982 11.9995 13C10.8557 12.9982 9.74625 13.3902 8.85745 14.11L6.97245 11.776V11.777ZM10.1145 15.667C10.6475 15.2347 11.3132 14.9992 11.9995 15C12.7135 15 13.3695 15.25 13.8845 15.666L11.9995 18L10.1145 15.667Z" fill="#34C759"/>
</svg>
