<svg width="16" height="14" viewBox="0 0 16 14" fill="none" xmlns="http://www.w3.org/2000/svg">
<path d="M5.75 0.25H10.25L11.75 1.75H14.75C14.9489 1.75 15.1397 1.82902 15.2803 1.96967C15.421 2.11032 15.5 2.30109 15.5 2.5V13C15.5 13.1989 15.421 13.3897 15.2803 13.5303C15.1397 13.671 14.9489 13.75 14.75 13.75H1.25C1.05109 13.75 0.860322 13.671 0.71967 13.5303C0.579018 13.3897 0.5 13.1989 0.5 13V2.5C0.5 2.30109 0.579018 2.11032 0.71967 1.96967C0.860322 1.82902 1.05109 1.75 1.25 1.75H4.25L5.75 0.25ZM8 12.25C9.19347 12.25 10.3381 11.7759 11.182 10.932C12.0259 10.0881 12.5 8.94347 12.5 7.75C12.5 6.55653 12.0259 5.41193 11.182 4.56802C10.3381 3.72411 9.19347 3.25 8 3.25C6.80653 3.25 5.66193 3.72411 4.81802 4.56802C3.97411 5.41193 3.5 6.55653 3.5 7.75C3.5 8.94347 3.97411 10.0881 4.81802 10.932C5.66193 11.7759 6.80653 12.25 8 12.25ZM8 10.75C7.20435 10.75 6.44129 10.4339 5.87868 9.87132C5.31607 9.30871 5 8.54565 5 7.75C5 6.95435 5.31607 6.19129 5.87868 5.62868C6.44129 5.06607 7.20435 4.75 8 4.75C8.79565 4.75 9.55871 5.06607 10.1213 5.62868C10.6839 6.19129 11 6.95435 11 7.75C11 8.54565 10.6839 9.30871 10.1213 9.87132C9.55871 10.4339 8.79565 10.75 8 10.75Z" fill="#CCCECF"/>
</svg>
