<svg width="17" height="16" viewBox="0 0 17 16" fill="none" xmlns="http://www.w3.org/2000/svg">
<path d="M14.75 9.25V11.5H17V13H14.75V15.25H13.25V13H11V11.5H13.25V9.25H14.75ZM14.756 0.25C15.167 0.25 15.5 0.58375 15.5 0.99475V8.0065C15.0182 7.83632 14.5109 7.74958 14 7.75V1.75H2L2.00075 12.25L8.96975 5.28025C9.09872 5.15086 9.27051 5.07305 9.45283 5.06145C9.63515 5.04984 9.81542 5.10525 9.95975 5.21725L10.0295 5.281L12.689 7.9435C12.1075 8.1207 11.5679 8.41383 11.1027 8.80522C10.6375 9.19661 10.2565 9.67815 9.98244 10.2208C9.70841 10.7635 9.54712 11.356 9.50829 11.9627C9.46946 12.5693 9.55389 13.1776 9.7565 13.7507L1.244 13.75C1.04661 13.7498 0.857373 13.6712 0.717867 13.5316C0.578362 13.392 0.5 13.2026 0.5 13.0052V0.99475C0.501373 0.797784 0.580175 0.609263 0.719385 0.469913C0.858594 0.330563 1.04704 0.251571 1.244 0.25H14.756ZM5 3.25C5.39782 3.25 5.77936 3.40804 6.06066 3.68934C6.34196 3.97064 6.5 4.35218 6.5 4.75C6.5 5.14782 6.34196 5.52936 6.06066 5.81066C5.77936 6.09196 5.39782 6.25 5 6.25C4.60218 6.25 4.22064 6.09196 3.93934 5.81066C3.65804 5.52936 3.5 5.14782 3.5 4.75C3.5 4.35218 3.65804 3.97064 3.93934 3.68934C4.22064 3.40804 4.60218 3.25 5 3.25Z" fill="#CCCECF"/>
</svg>
