<svg width="20" height="22" viewBox="0 0 20 22" fill="none" xmlns="http://www.w3.org/2000/svg">
<path d="M4.17 16.9995C4.3766 16.414 4.75974 15.907 5.2666 15.5483C5.77346 15.1897 6.37909 14.9971 7 14.9971C7.62091 14.9971 8.22654 15.1897 8.7334 15.5483C9.24026 15.907 9.6234 16.414 9.83 16.9995H20V18.9995H9.83C9.6234 19.5851 9.24026 20.0921 8.7334 20.4507C8.22654 20.8094 7.62091 21.002 7 21.002C6.37909 21.002 5.77346 20.8094 5.2666 20.4507C4.75974 20.0921 4.3766 19.5851 4.17 18.9995H0V16.9995H4.17ZM10.17 9.99952C10.3766 9.41399 10.7597 8.90695 11.2666 8.54831C11.7735 8.18967 12.3791 7.99707 13 7.99707C13.6209 7.99707 14.2265 8.18967 14.7334 8.54831C15.2403 8.90695 15.6234 9.41399 15.83 9.99952H20V11.9995H15.83C15.6234 12.5851 15.2403 13.0921 14.7334 13.4507C14.2265 13.8094 13.6209 14.002 13 14.002C12.3791 14.002 11.7735 13.8094 11.2666 13.4507C10.7597 13.0921 10.3766 12.5851 10.17 11.9995H0V9.99952H10.17ZM4.17 2.99952C4.3766 2.41399 4.75974 1.90695 5.2666 1.54831C5.77346 1.18967 6.37909 0.99707 7 0.99707C7.62091 0.99707 8.22654 1.18967 8.7334 1.54831C9.24026 1.90695 9.6234 2.41399 9.83 2.99952H20V4.99952H9.83C9.6234 5.58505 9.24026 6.09209 8.7334 6.45073C8.22654 6.80938 7.62091 7.00197 7 7.00197C6.37909 7.00197 5.77346 6.80938 5.2666 6.45073C4.75974 6.09209 4.3766 5.58505 4.17 4.99952H0V2.99952H4.17Z" fill="#2F3234"/>
</svg>
