<svg width="21" height="20" viewBox="0 0 21 20" fill="none" xmlns="http://www.w3.org/2000/svg">
<path d="M3.83356 2.54507C4.86029 1.62535 6.06625 0.928062 7.37556 0.49707C7.74994 0.966094 8.22522 1.3447 8.76608 1.60474C9.30693 1.86478 9.89944 1.99956 10.4996 1.99907C11.0997 1.99956 11.6922 1.86478 12.233 1.60474C12.7739 1.3447 13.2492 0.966094 13.6236 0.49707C14.9329 0.928062 16.1388 1.62535 17.1656 2.54507C16.9471 3.10352 16.8572 3.70401 16.9025 4.30196C16.9479 4.89991 17.1273 5.47997 17.4276 5.99907C17.7272 6.51916 18.1402 6.96502 18.6358 7.30349C19.1315 7.64196 19.6971 7.86433 20.2906 7.95407C20.5711 9.30297 20.5711 10.6952 20.2906 12.0441C19.1306 12.2221 18.0606 12.9041 17.4276 13.9991C17.1272 14.5183 16.9476 15.0985 16.9023 15.6967C16.8569 16.2948 16.9469 16.8955 17.1656 17.4541C16.1387 18.3734 14.9328 19.0704 13.6236 19.5011C13.2491 19.0322 12.7738 18.6538 12.2329 18.394C11.6921 18.1341 11.0996 17.9995 10.4996 18.0001C9.89944 17.9996 9.30693 18.1344 8.76608 18.3944C8.22522 18.6544 7.74994 19.033 7.37556 19.5021C6.06633 19.0714 4.86038 18.3744 3.83356 17.4551C4.05221 16.8965 4.1422 16.2958 4.09684 15.6977C4.05148 15.0995 3.87194 14.5193 3.57156 14.0001C3.27185 13.4802 2.85881 13.0345 2.36314 12.6962C1.86748 12.3579 1.30194 12.1357 0.708561 12.0461C0.427876 10.6968 0.427876 9.30429 0.708561 7.95507C1.30203 7.86533 1.86763 7.64296 2.3633 7.30449C2.85897 6.96602 3.27196 6.52016 3.57156 6.00007C3.87179 5.48097 4.05124 4.90091 4.0966 4.30296C4.14196 3.70501 4.05205 3.10352 3.83356 2.54507ZM11.9996 12.5971C12.3435 12.4015 12.6454 12.1399 12.8878 11.8272C13.1302 11.5145 13.3083 11.157 13.412 10.7751C13.5157 10.3933 13.5428 9.99478 13.4918 9.60244C13.4408 9.2101 13.3127 8.83172 13.1149 8.48909C12.917 8.14646 12.6534 7.84634 12.3391 7.60601C12.0248 7.36569 11.6661 7.1899 11.2836 7.08877C10.9011 6.98765 10.5024 6.96318 10.1104 7.01678C9.71839 7.07037 9.34087 7.20098 8.99956 7.40107C8.31614 7.80172 7.81894 8.45643 7.61645 9.22232C7.41396 9.9882 7.52263 10.8031 7.91874 11.4892C8.31485 12.1752 8.96624 12.6768 9.73077 12.8843C10.4953 13.0919 11.3109 12.9886 11.9996 12.5971Z" fill="#FF9500"/>
</svg>
