<svg width="20" height="22" viewBox="0 0 20 22" fill="none" xmlns="http://www.w3.org/2000/svg">
<path d="M4.17 17.0005C4.3766 16.415 4.75974 15.9079 5.2666 15.5493C5.77346 15.1906 6.37909 14.998 7 14.998C7.62091 14.998 8.22654 15.1906 8.7334 15.5493C9.24026 15.9079 9.6234 16.415 9.83 17.0005H20V19.0005H9.83C9.6234 19.586 9.24026 20.0931 8.7334 20.4517C8.22654 20.8104 7.62091 21.0029 7 21.0029C6.37909 21.0029 5.77346 20.8104 5.2666 20.4517C4.75974 20.0931 4.3766 19.586 4.17 19.0005H0V17.0005H4.17ZM10.17 10.0005C10.3766 9.41496 10.7597 8.90793 11.2666 8.54929C11.7735 8.19064 12.3791 7.99805 13 7.99805C13.6209 7.99805 14.2265 8.19064 14.7334 8.54929C15.2403 8.90793 15.6234 9.41496 15.83 10.0005H20V12.0005H15.83C15.6234 12.586 15.2403 13.0931 14.7334 13.4517C14.2265 13.8104 13.6209 14.0029 13 14.0029C12.3791 14.0029 11.7735 13.8104 11.2666 13.4517C10.7597 13.0931 10.3766 12.586 10.17 12.0005H0V10.0005H10.17ZM4.17 3.0005C4.3766 2.41496 4.75974 1.90793 5.2666 1.54929C5.77346 1.19064 6.37909 0.998047 7 0.998047C7.62091 0.998047 8.22654 1.19064 8.7334 1.54929C9.24026 1.90793 9.6234 2.41496 9.83 3.0005H20V5.0005H9.83C9.6234 5.58603 9.24026 6.09306 8.7334 6.45171C8.22654 6.81035 7.62091 7.00295 7 7.00295C6.37909 7.00295 5.77346 6.81035 5.2666 6.45171C4.75974 6.09306 4.3766 5.58603 4.17 5.0005H0V3.0005H4.17Z" fill="#2F3234"/>
</svg>
