<svg width="23" height="18" viewBox="0 0 23 18" fill="none" xmlns="http://www.w3.org/2000/svg">
<path d="M0.189453 3.99702C3.38854 1.40534 7.3823 -0.00607102 11.4995 1.96299e-05C15.7845 1.96299e-05 19.7195 1.49702 22.8095 3.99702L20.9245 6.33002C18.2584 4.17055 14.9303 2.99467 11.4995 3.00002C7.92945 3.00002 4.64945 4.24802 2.07445 6.33002L0.189453 3.99702ZM3.33045 7.88702C5.64106 6.01502 8.52569 4.99556 11.4995 5.00002C14.5935 5.00002 17.4355 6.08102 19.6685 7.88602L17.7835 10.22C16.0059 8.78023 13.7869 7.9963 11.4995 8.00002C9.11945 8.00002 6.93345 8.83202 5.21545 10.22L3.33045 7.88602V7.88702ZM6.47245 11.777C7.8943 10.6249 9.66943 9.99742 11.4995 10C13.4035 10 15.1525 10.665 16.5265 11.776L14.6415 14.11C13.7527 13.3902 12.6432 12.9982 11.4995 13C10.3557 12.9982 9.24625 13.3902 8.35745 14.11L6.47245 11.776V11.777ZM9.61445 15.667C10.1475 15.2347 10.8132 14.9992 11.4995 15C12.2135 15 12.8695 15.25 13.3845 15.666L11.4995 18L9.61445 15.667Z" fill="#34C759"/>
</svg>
