<svg width="16" height="16" viewBox="0 0 16 16" fill="none" xmlns="http://www.w3.org/2000/svg">
<path d="M8 15.5C3.85775 15.5 0.5 12.1423 0.5 8C0.5 3.85775 3.85775 0.5 8 0.5C12.1423 0.5 15.5 3.85775 15.5 8C15.5 12.1423 12.1423 15.5 8 15.5ZM5.375 9.5V11H7.25V12.5H8.75V11H9.5C9.99728 11 10.4742 10.8025 10.8258 10.4508C11.1775 10.0992 11.375 9.62228 11.375 9.125C11.375 8.62772 11.1775 8.15081 10.8258 7.79917C10.4742 7.44754 9.99728 7.25 9.5 7.25H6.5C6.40054 7.25 6.30516 7.21049 6.23483 7.14017C6.16451 7.06984 6.125 6.97446 6.125 6.875C6.125 6.77554 6.16451 6.68016 6.23483 6.60983C6.30516 6.53951 6.40054 6.5 6.5 6.5H10.625V5H8.75V3.5H7.25V5H6.5C6.00272 5 5.52581 5.19754 5.17417 5.54917C4.82254 5.90081 4.625 6.37772 4.625 6.875C4.625 7.37228 4.82254 7.84919 5.17417 8.20083C5.52581 8.55246 6.00272 8.75 6.5 8.75H9.5C9.59946 8.75 9.69484 8.78951 9.76517 8.85983C9.83549 8.93016 9.875 9.02554 9.875 9.125C9.875 9.22446 9.83549 9.31984 9.76517 9.39017C9.69484 9.46049 9.59946 9.5 9.5 9.5H5.375Z" fill="#FF9500"/>
</svg>
